<svg xmlns="http://www.w3.org/2000/svg" width="309" height="418" viewBox="0 0 309 418">
  <g id="그룹_26" data-name="그룹 26" transform="translate(-35 -229)">
    <path id="사각형_1" data-name="사각형 1" d="M20,0H289a20,20,0,0,1,20,20V77a0,0,0,0,1,0,0H0a0,0,0,0,1,0,0V20A20,20,0,0,1,20,0Z" transform="translate(35 229)" fill="#6326ff"/>
    <g id="그룹_14" data-name="그룹 14" transform="translate(-6.743)">
      <g id="그룹_1" data-name="그룹 1" transform="translate(252.718 271.303) rotate(180)">
        <rect id="사각형_2" data-name="사각형 2" width="111.941" height="14.431" transform="translate(0.034 0)" fill="#fbd14b"/>
        <path id="패스_1" data-name="패스 1" d="M4054.057-3029.975h-7.021l7.021-14.431h7.021Z" transform="translate(-4004.098 3044.407)" fill="#4d21bc"/>
        <path id="패스_2" data-name="패스 2" d="M4016.6-3029.975h-7.021l7.021-14.431h7.021Z" transform="translate(-3981.464 3044.407)" fill="#4d21bc"/>
        <path id="패스_3" data-name="패스 3" d="M3979.146-3029.975h-7.021l7.021-14.431h7.021Z" transform="translate(-3958.83 3044.407)" fill="#4d21bc"/>
        <path id="패스_4" data-name="패스 4" d="M4203.878-3029.975h-7.02l7.02-14.431h2.73l-.015,8.85Z" transform="translate(-4094.634 3044.407)" fill="#4d21bc"/>
        <path id="패스_5" data-name="패스 5" d="M4166.423-3029.975H4159.4l7.021-14.431h7.021Z" transform="translate(-4072 3044.407)" fill="#4d21bc"/>
        <path id="패스_6" data-name="패스 6" d="M4128.967-3029.975h-7.02l7.02-14.431h7.021Z" transform="translate(-4049.366 3044.407)" fill="#4d21bc"/>
        <path id="패스_7" data-name="패스 7" d="M4091.512-3029.975h-7.021l7.021-14.431h7.021Z" transform="translate(-4026.732 3044.407)" fill="#4d21bc"/>
        <path id="패스_8" data-name="패스 8" d="M3944.021-3029.975h-5.46l-.034-3.137,5.495-11.294h7.021Z" transform="translate(-3938.527 3044.407)" fill="#4d21bc"/>
      </g>
      <g id="그룹_2" data-name="그룹 2" transform="translate(240.478 256.872) rotate(180)">
        <rect id="사각형_3" data-name="사각형 3" width="5.851" height="27.783" fill="#4d21bc"/>
        <rect id="사각형_4" data-name="사각형 4" width="3.78" height="26.534" transform="translate(0.312 1.249)" fill="#6224fb"/>
      </g>
      <g id="그룹_3" data-name="그룹 3" transform="translate(240.181 277.301) rotate(180)">
        <circle id="타원_1" data-name="타원 1" cx="3.155" cy="3.155" r="3.155" fill="#fbd14b"/>
        <circle id="타원_2" data-name="타원 2" cx="1.683" cy="1.683" r="1.683" transform="translate(1.472 1.472)" fill="#4d21bc"/>
      </g>
      <g id="그룹_13" data-name="그룹 13" transform="translate(158.181 277.301) rotate(180)">
        <circle id="타원_1-2" data-name="타원 1" cx="3.155" cy="3.155" r="3.155" fill="#fbd14b"/>
        <circle id="타원_2-2" data-name="타원 2" cx="1.683" cy="1.683" r="1.683" transform="translate(1.472 1.472)" fill="#4d21bc"/>
      </g>
      <g id="그룹_5" data-name="그룹 5" transform="translate(158.14 256.872) rotate(180)">
        <rect id="사각형_5" data-name="사각형 5" width="5.851" height="27.783" fill="#4d21bc"/>
        <rect id="사각형_6" data-name="사각형 6" width="3.78" height="26.534" transform="translate(0.39 1.249)" fill="#6224fb"/>
      </g>
      <circle id="타원_3" data-name="타원 3" cx="6.056" cy="6.056" r="6.056" transform="translate(183.113 283.104) rotate(180)" fill="#4d21bc"/>
      <circle id="타원_4" data-name="타원 4" cx="3.23" cy="3.23" r="3.23" transform="translate(180.286 280.278) rotate(180)" fill="#ed1c24"/>
      <circle id="타원_3-2" data-name="타원 3" cx="6.056" cy="6.056" r="6.056" transform="translate(204.113 283.104) rotate(180)" fill="#4d21bc"/>
      <circle id="타원_4-2" data-name="타원 4" cx="3.23" cy="3.23" r="3.23" transform="translate(201.286 280.278) rotate(180)" fill="#fbd14b"/>
      <circle id="타원_3-3" data-name="타원 3" cx="6.056" cy="6.056" r="6.056" transform="translate(225.113 283.104) rotate(180)" fill="#4d21bc"/>
      <circle id="타원_4-3" data-name="타원 4" cx="3.23" cy="3.23" r="3.23" transform="translate(222.286 280.278) rotate(180)" fill="lime"/>
    </g>
    <path id="사각형_12" data-name="사각형 12" d="M0,0H309a0,0,0,0,1,0,0V321a20,20,0,0,1-20,20H20A20,20,0,0,1,0,321V0A0,0,0,0,1,0,0Z" transform="translate(35 306)" fill="#dedcee"/>
    <path id="사각형_18" data-name="사각형 18" d="M0,0H259a0,0,0,0,1,0,0V296a20,20,0,0,1-20,20H20A20,20,0,0,1,0,296V0A0,0,0,0,1,0,0Z" transform="translate(60 306)" fill="#fff"/>
    <text id="추가로_회사의_작업일정에_따라_업데이트가_연기되는_일자가_발생할_수_있습니다." data-name="추가로 회사의 작업일정에 따라
업데이트가 연기되는 일자가
발생할 수 있습니다." transform="translate(190 456)" fill="#333" font-size="14" font-family="NotoSansCJKkr-Light, Noto Sans CJK KR" font-weight="300"><tspan x="-88.382" y="0">추가로 회사의 작업일정에 따라</tspan><tspan x="-80.388" y="20">업데이트가 연기되는 일자가</tspan><tspan x="-56.378" y="40">발생할 수 있습니다.</tspan></text>
    <text id="스마트온_서비스_내_코로나_19_현황은_주말_및_공휴일에는_업데이트_되지_않습니다." data-name="스마트온 서비스 내
코로나 19 현황은
주말 및 공휴일에는
업데이트 되지 않습니다." transform="translate(190 346)" fill="#333" font-size="18" font-family="NotoSansCJKkr-Regular, Noto Sans CJK KR"><tspan x="-70.272" y="0">스마트온 서비스 내</tspan><tspan fill="#6326ff" font-family="NotoSansCJKkr-Bold, Noto Sans CJK KR" font-weight="700"><tspan x="-64.368" y="24">코로나 19 현황</tspan><tspan y="24" fill="#333" font-family="NotoSansCJKkr-Regular, Noto Sans CJK KR" font-weight="400">은</tspan></tspan><tspan font-family="NotoSansCJKkr-Bold, Noto Sans CJK KR" font-weight="700"><tspan x="-70.326" y="48">주말 </tspan><tspan y="48" font-family="NotoSansCJKkr-Regular, Noto Sans CJK KR" font-weight="400">및</tspan><tspan y="48" xml:space="preserve"> 공휴일</tspan><tspan y="48" font-family="NotoSansCJKkr-Regular, Noto Sans CJK KR" font-weight="400">에는</tspan></tspan><tspan x="-89.334" y="72">업데이트 되지 않습니다.</tspan></text>
    <text id="이용에_참고_부탁_드립니다." data-name="이용에 참고 부탁 드립니다." transform="translate(190 533)" fill="#333" font-size="14" font-family="NotoSansCJKkr-Light, Noto Sans CJK KR" font-weight="300"><tspan x="-77.252" y="0">이용에 참고 부탁 드립니다.</tspan></text>
  </g>
</svg>
